<svg width="64" height="64" viewBox="0 0 64 64" fill="none" xmlns="http://www.w3.org/2000/svg">
<rect width="64" height="64" fill="#222222"/>
<path d="M24.7888 24.48V31.14H36.4528V35.82H24.7888V45H18.9568V19.8H38.0008V24.48H24.7888ZM43.3254 45.288C42.3414 45.288 41.5134 44.952 40.8414 44.28C40.1694 43.608 39.8334 42.768 39.8334 41.76C39.8334 40.728 40.1694 39.9 40.8414 39.276C41.5134 38.628 42.3414 38.304 43.3254 38.304C44.3094 38.304 45.1374 38.628 45.8094 39.276C46.4814 39.9 46.8174 40.728 46.8174 41.76C46.8174 42.768 46.4814 43.608 45.8094 44.28C45.1374 44.952 44.3094 45.288 43.3254 45.288Z" fill="white"/>
</svg>
